) (`-.                           (` .-') /`           ) (`-.
       ( OO ).                          `.( OO ),'            ( OO ).
      (_/.  _)-.-'),-----. ,--.     ,--./  .--.  .-'),-----.(_/.  _)-.
         `.'  ( OO'  .-.  '|  |.-') |      |  | ( OO'  .-.  '  `.'  /
             /Y   |  | |  ||  | OO )|  |   |  |,/   |  | |  |      /
             _) |  ||  ||  |`-' ||  |.'.|  |_)_) |  ||  |      |
        .'    _) |  | |  (|  '---.'|         |    |  | |  | .'    _)
       /  .'.    `'  '-'  '|      | |   ,'.   |    `'  '-'  '/  .'.  
      '--'   '--'   `-----' `------' '--'   '--'      `-----''--'   '--'


      ßßßßßßßßßßßßßßßßßßßßßßßßßßßßßßßßßßßßßßßßßßßßßßßßßßßßßßßßßßßßßßßßßßßßßß

             Û°°°°°°°°°°°°°°°°°°°°°°°°°°°°°°°°°°°°°°°°°°°Û
            ÛÛ I Love You Beth Cooper[2009]-WP-DvDScR-LW ÛÛ
             Û°°°°°°°°°°°°°°°°°°°°°°°°°°°°°°°°°°°°°°°°°°°Û

File Name    : I Love You Beth Cooper[2009]-WP-DvDScR-LW
Type         : Movie
Format       : AVI
File Size    : 1.12 GB
Duration     : 01:38:05
Language     : English
Source       : DvD
Subtitles    : None
Genre        : Comedy
IMDB Link    : http://www.imdb.com/title/tt1032815/
IMDB Rating  : 4.8/10
IMDB Votes   : 1,763 Votes
     ÜÜÜÜÜÜÜÜÜÜÜÜÜÜÜÜÜÜÜÜÜÜÜÜÜÜÜÜÜÜÜÜÜÜÜÜÜÜÜÜÜÜÜÜÜÜÜÜÜÜÜÜÜÜÜÜÜÜÜÜÜÜÜÜÜÜÜÜÜÜ
 
                        Û°°°°°°°°°°°°°°°°°°°°°°°°Û
                       ÛÛ       Video Info       ÛÛ
                        Û°°°°°°°°°°°°°°°°°°°°°°°°Û

Format                           : MPEG-4 Visual
Format profile                   : Simple@L3
Format settings, BVOP            : No
Format settings, QPel            : No
Format settings, GMC             : No warppoints
Format settings, Matrix          : Default (H.263)
Codec ID                         : XVID
Codec ID/Hint                    : XviD
Duration                         : 1h 38mn
Bit rate                         : 1 502 Kbps
Width                            : 640 pixels
Height                           : 432 pixels
Display aspect ratio             : 1.481
Frame rate                       : 29.970 fps
Resolution                       : 24 bits
Colorimetry                      : 4:2:0
Scan type                        : Progressive
Bits/(Pixel*Frame)               : 0.181
Stream size                      : 1.03 GiB (91%)
Writing library                  : XviD 1.2.1
     ÜÜÜÜÜÜÜÜÜÜÜÜÜÜÜÜÜÜÜÜÜÜÜÜÜÜÜÜÜÜÜÜÜÜÜÜÜÜÜÜÜÜÜÜÜÜÜÜÜÜÜÜÜÜÜÜÜÜÜÜÜÜÜÜÜÜÜÜÜÜ

                         Û°°°°°°°°°°°°°°°°°°°°°°°°Û
                        ÛÛ      Sound Info        ÛÛ
                         Û°°°°°°°°°°°°°°°°°°°°°°°°Û

Format                           : MPEG Audio
Format version                   : Version 1
Format profile                   : Layer 3
Codec ID                         : 55
Codec ID/Hint                    : MP3
Duration                         : 1h 38mn
Bit rate mode                    : Constant
Bit rate                         : 128 Kbps
Channel(s)                       : 2 channels
Sampling rate                    : 48.0 KHz
Resolution                       : 16 bits
Stream size                      : 89.8 MiB (8%)
Alignment                        : Aligned on interleaves
Interleave, duration             : 24 ms (0.72 video frame)
Interleave, preload duration     : 504 ms
    ÜÜÜÜÜÜÜÜÜÜÜÜÜÜÜÜÜÜÜÜÜÜÜÜÜÜÜÜÜÜÜÜÜÜÜÜÜÜÜÜÜÜÜÜÜÜÜÜÜÜÜÜÜÜÜÜÜÜÜÜÜÜÜÜÜÜÜÜÜÜ

                          Û°°°°°°°°°°°°°°°°°°°°°°°°Û
                         ÛÛ          Plot          ÛÛ
                          Û°°°°°°°°°°°°°°°°°°°°°°°°Û

When bookish high school valedictorian Denis Cooverman 
(Paul Rust) uses his graduation speech to express 
his adoration for resident hottie Beth Cooper (Hayden 
Panettiere), he gets the shock of his life when she 
responds by showing up on his doorstep that very night. 
Based on the popular novel by Larry Doyle, this charming 
coming-of-age tale is helmed by director Chris Columbus 
(Harry Potter and the Chamber of Secrets).

Starring: Hayden Panettiere, Paul Rust

Director: Chris Columbus
    ÜÜÜÜÜÜÜÜÜÜÜÜÜÜÜÜÜÜÜÜÜÜÜÜÜÜÜÜÜÜÜÜÜÜÜÜÜÜÜÜÜÜÜÜÜÜÜÜÜÜÜÜÜÜÜÜÜÜÜÜÜÜÜÜÜÜÜÜÜÜ

ScreenShots 
http://imgshack.info/images/d5y2fo4giv3mndu02x.png 
http://imgshack.info/images/4vrbkcio6iqkxw266tpu.png 
http://imgshack.info/images/4tfl2bpg7guekjoi3ww.png 
http://imgshack.info/images/jmld5xrghxfq5piuncss.jpg 
http://torrentz.me.pn